<svg width="92" height="28" fill="none" xmlns="http://www.w3.org/2000/svg"><path d="M.599 21.729V11.02h12.783v-.626H.6V.626h13.59V0H0v22.355h14.31v-.626H.6ZM25.837 6.262l-5.3 7.295-5.179-7.295h-.778l5.598 7.765-6.137 8.328h.718l5.778-7.859 5.808 7.859h.749l-6.168-8.329 5.629-7.764h-.718Zm3.053 21.604v-10.02h.06c.36 1.462 1.068 2.636 2.126 3.523 1.058.887 2.405 1.33 4.041 1.33 1.058 0 1.996-.224 2.815-.672a6.067 6.067 0 0 0 2.05-1.832c.55-.772.968-1.67 1.258-2.693.29-1.022.434-2.097.434-3.224 0-1.211-.15-2.328-.45-3.35-.299-1.024-.733-1.91-1.301-2.662a6.047 6.047 0 0 0-2.066-1.753c-.809-.418-1.722-.627-2.74-.627-.778 0-1.502.12-2.17.36a5.74 5.74 0 0 0-1.781 1.018 6.794 6.794 0 0 0-1.348 1.55 7.292 7.292 0 0 0-.868 1.957h-.06V6.26h-.599v21.605h.6Zm6.227-5.761c-1.876 0-3.383-.674-4.52-2.02-1.138-1.346-1.707-3.282-1.707-5.808 0-1.043.14-2.035.42-2.974.279-.94.683-1.764 1.212-2.474a5.888 5.888 0 0 1 1.96-1.69c.78-.418 1.657-.627 2.635-.627.998 0 1.872.21 2.62.627a5.392 5.392 0 0 1 1.856 1.706c.49.72.858 1.545 1.108 2.473.25.93.374 1.915.374 2.96 0 .939-.115 1.873-.344 2.801a8.196 8.196 0 0 1-1.063 2.505 5.902 5.902 0 0 1-1.841 1.816c-.749.47-1.652.705-2.71.705Zm9.85.25v-9.111c0-.877.12-1.733.36-2.567a6.39 6.39 0 0 1 1.107-2.208 5.222 5.222 0 0 1 1.901-1.503c.768-.365 1.682-.516 2.74-.454v-.626c-.919-.02-1.722.084-2.41.313a5.758 5.758 0 0 0-1.782.94 4.71 4.71 0 0 0-1.197 1.393 6.397 6.397 0 0 0-.66 1.706h-.059V6.262h-.599v16.093h.599Zm6.856-7.921h12.873c.04-1.107-.064-2.17-.314-3.194-.25-1.023-.649-1.93-1.198-2.724a6.182 6.182 0 0 0-2.125-1.91c-.868-.48-1.901-.72-3.099-.72-.858 0-1.696.188-2.515.564a6.274 6.274 0 0 0-2.155 1.644c-.619.72-1.118 1.602-1.497 2.645-.38 1.044-.569 2.234-.569 3.57 0 1.19.13 2.3.39 3.334.259 1.033.658 1.93 1.197 2.693a5.462 5.462 0 0 0 2.08 1.769c.849.417 1.872.615 3.07.595 1.756 0 3.233-.517 4.43-1.55 1.198-1.034 1.906-2.49 2.126-4.368h-.6c-.259 1.774-.922 3.105-1.99 3.992s-2.41 1.33-4.027 1.33c-1.097 0-2.026-.198-2.784-.594a5.107 5.107 0 0 1-1.856-1.628c-.48-.69-.833-1.498-1.063-2.427a13.623 13.623 0 0 1-.374-3.021Zm12.274-.626H51.823c.06-1.128.26-2.14.599-3.037.339-.898.783-1.665 1.332-2.302a5.587 5.587 0 0 1 1.916-1.456 5.572 5.572 0 0 1 2.35-.5c.998 0 1.876.193 2.635.579a5.49 5.49 0 0 1 1.9 1.58 7.09 7.09 0 0 1 1.153 2.333c.26.887.39 1.822.39 2.803Zm13.024-2.787h.598c0-1.795-.499-3.1-1.496-3.914-.999-.814-2.356-1.22-4.072-1.22-.958 0-1.766.125-2.425.375-.659.25-1.198.574-1.617.97a3.495 3.495 0 0 0-.898 1.316c-.18.48-.27.939-.27 1.377 0 .877.15 1.576.45 2.098.3.522.768.929 1.407 1.221.439.209.938.396 1.497.564.558.167 1.207.344 1.946.532.658.167 1.307.334 1.946.5a6.843 6.843 0 0 1 1.691.674c.49.282.888.642 1.198 1.08.309.438.464 1.013.464 1.722 0 .689-.155 1.274-.464 1.753-.307.478-.71.879-1.183 1.175a5.134 5.134 0 0 1-1.602.657 7.652 7.652 0 0 1-1.721.204c-1.816 0-3.208-.423-4.176-1.268-.968-.846-1.452-2.176-1.452-3.992h-.6c0 2.024.525 3.506 1.573 4.446 1.047.939 2.6 1.409 4.655 1.409a8.71 8.71 0 0 0 1.991-.235 5.4 5.4 0 0 0 1.796-.767c.525-.35.965-.822 1.287-1.378.33-.564.494-1.252.494-2.066 0-.773-.144-1.399-.434-1.88a3.73 3.73 0 0 0-1.137-1.189 5.906 5.906 0 0 0-1.587-.736 90.271 90.271 0 0 0-1.781-.516c-.733-.201-1.467-.4-2.2-.595a12.965 12.965 0 0 1-1.752-.595 2.99 2.99 0 0 1-1.243-.986c-.31-.428-.464-1.039-.464-1.832 0-.146.04-.407.12-.783.08-.375.27-.756.569-1.142.3-.386.758-.73 1.377-1.034.619-.302 1.467-.454 2.545-.454.738 0 1.412.084 2.02.25a4.129 4.129 0 0 1 1.572.8c.44.365.779.829 1.018 1.393.24.563.36 1.252.36 2.066Zm13.86 0h.6c0-1.795-.5-3.1-1.497-3.914-.998-.814-2.355-1.22-4.072-1.22-.958 0-1.766.125-2.425.375-.659.25-1.197.574-1.617.97a3.5 3.5 0 0 0-.898 1.316c-.18.48-.27.939-.27 1.377 0 .877.15 1.576.45 2.098.3.522.769.929 1.407 1.221.44.209.938.396 1.497.564.559.167 1.207.344 1.946.532a285.1 285.1 0 0 1 1.946.5 6.843 6.843 0 0 1 1.692.674c.488.282.888.642 1.197 1.08.31.438.464 1.013.464 1.722 0 .689-.155 1.274-.464 1.753-.307.478-.71.879-1.182 1.175a5.134 5.134 0 0 1-1.602.657 7.652 7.652 0 0 1-1.722.204c-1.816 0-3.208-.423-4.176-1.268-.968-.846-1.452-2.176-1.452-3.992h-.599c0 2.024.524 3.506 1.572 4.446 1.048.939 2.6 1.409 4.655 1.409.659 0 1.323-.079 1.991-.235a5.404 5.404 0 0 0 1.797-.767c.524-.35.964-.822 1.287-1.378.33-.564.494-1.252.494-2.066 0-.773-.145-1.399-.434-1.88a3.729 3.729 0 0 0-1.138-1.189 5.908 5.908 0 0 0-1.587-.736 90.074 90.074 0 0 0-1.781-.516c-.733-.201-1.466-.4-2.2-.595a12.955 12.955 0 0 1-1.752-.595 2.988 2.988 0 0 1-1.242-.986c-.31-.428-.464-1.039-.464-1.832 0-.146.04-.407.12-.783.08-.375.269-.756.568-1.142.3-.386.759-.73 1.377-1.034.62-.302 1.467-.454 2.545-.454.739 0 1.412.084 2.021.25a4.13 4.13 0 0 1 1.572.8 3.62 3.62 0 0 1 1.018 1.393c.24.563.359 1.252.359 2.066Z" fill="#222"/></svg>