<svg width="32" height="43" fill="none" xmlns="http://www.w3.org/2000/svg"><path d="M8 43c4.416 0 8-3.21 8-7.167v-7.166H8c-4.416 0-8 3.21-8 7.166C0 39.79 3.584 43 8 43Z" fill="#0ACF83"/><path d="M0 21.5c0-3.956 3.584-7.167 8-7.167h8v14.334H8c-4.416 0-8-3.211-8-7.167Z" fill="#A259FF"/><path d="M0 7.167C0 3.21 3.584 0 8 0h8v14.333H8c-4.416 0-8-3.21-8-7.166Z" fill="#F24E1E"/><path d="M16 0h8c4.416 0 8 3.21 8 7.167 0 3.956-3.584 7.166-8 7.166h-8V0Z" fill="#FF7262"/><path d="M32 21.5c0 3.956-3.584 7.167-8 7.167s-8-3.211-8-7.167 3.584-7.167 8-7.167 8 3.211 8 7.167Z" fill="#1ABCFE"/></svg>