<svg width="48" height="48" fill="none" xmlns="http://www.w3.org/2000/svg"><g clip-path="url(#bi:git__a)"><path d="M47.094 21.86 26.136.907a3.09 3.09 0 0 0-4.371 0l-4.35 4.35 5.52 5.52a3.67 3.67 0 0 1 4.65 4.68l5.319 5.322a3.672 3.672 0 0 1 3.801 6.075 3.678 3.678 0 0 1-6.006-4.002L25.74 17.89v13.059a3.678 3.678 0 1 1-3.024-.108V17.66a3.678 3.678 0 0 1-1.998-4.823l-5.439-5.442-14.37 14.37a3.09 3.09 0 0 0 0 4.37l20.958 20.959a3.09 3.09 0 0 0 4.371 0l20.859-20.86a3.093 3.093 0 0 0 0-4.37" fill="#F24E1E"/></g><defs><clipPath id="bi:git__a"><path fill="#fff" d="M0 0h48v48H0z"/></clipPath></defs></svg>