<svg width="48" height="48" fill="none" xmlns="http://www.w3.org/2000/svg"><path d="m24.93 45-1.127-.373s.15-5.7-1.912-6.101c-1.35-1.572.2-67.112 5.135-.224a4.068 4.068 0 0 0-2 2.285A21.153 21.153 0 0 0 24.93 45Z" fill="url(#vscode-icons:file-type-mongo__a)"/><path d="M25.539 39.493a19.834 19.834 0 0 0 7.5-19.837C30.834 9.929 25.612 6.731 25.05 5.51a14.72 14.72 0 0 1-1.238-2.4l.416 27.103s-.861 8.283 1.311 9.28Z" fill="url(#vscode-icons:file-type-mongo__b)"/><path d="M23.23 39.853s-9.18-6.253-8.65-17.316a23.31 23.31 0 0 1 8.278-17.471A2.588 2.588 0 0 0 23.77 3c.572 1.23.479 18.364.539 20.369.232 7.795-.434 15.013-1.078 16.484Z" fill="url(#vscode-icons:file-type-mongo__c)"/><defs><linearGradient id="vscode-icons:file-type-mongo__a" x1="17.358" y1="24.378" x2="30.305" y2="28.772" gradientUnits="userSpaceOnUse"><stop offset=".231" stop-color="#999875"/><stop offset=".563" stop-color="#9B9977"/><stop offset=".683" stop-color="#A09F7E"/><stop offset=".768" stop-color="#A9A889"/><stop offset=".837" stop-color="#B7B69A"/><stop offset=".896" stop-color="#C9C7B0"/><stop offset=".948" stop-color="#DEDDCB"/><stop offset=".994" stop-color="#F8F6EB"/><stop offset="1" stop-color="#FBF9EF"/></linearGradient><linearGradient id="vscode-icons:file-type-mongo__b" x1="22.105" y1="2.916" x2="27.829" y2="38.659" gradientUnits="userSpaceOnUse"><stop stop-color="#48A547"/><stop offset="1" stop-color="#3F9143"/></linearGradient><linearGradient id="vscode-icons:file-type-mongo__c" x1="13.79" y1="23.633" x2="29.151" y2="18.488" gradientUnits="userSpaceOnUse"><stop stop-color="#41A247"/><stop offset=".352" stop-color="#4BA74B"/><stop offset=".956" stop-color="#67B554"/><stop offset="1" stop-color="#69B655"/></linearGradient></defs></svg>