<svg width="48" height="48" fill="none" xmlns="http://www.w3.org/2000/svg"><path d="M27.075 44.4c.063-.142.222-.242.338-.361 1.762-1.849 3.54-3.68 5.278-5.55a4.8 4.8 0 0 0 1.521-3.989 8.898 8.898 0 0 0-.215-.936c-.474.45-.914.86-1.358 1.272-.69.642-1.378 1.287-2.074 1.922a2.896 2.896 0 0 1-3.222.628 2.96 2.96 0 0 1-1.934-2.625 1.566 1.566 0 0 0-.065-.219c-.53.45-1.037.864-1.539 1.29l-10.444 8.85c-.072.061-.15.138-.218.198h13.924l-.02-.014c-.076-.052-.037-.328.028-.466Zm-14.57 0c.124-.161.274-.301.443-.414l14.454-12.262a395.13 395.13 0 0 0 2.944-2.525.773.773 0 0 0 .273-.336 8.046 8.046 0 0 0 .098-3.104c-.15.105-.231.15-.3.224-1.184 1.059-2.361 2.127-3.55 3.18a2.643 2.643 0 0 1-3.073.494 2.834 2.834 0 0 1-1.62-2.711v-.486c-.217.159-.376.265-.524.386-5.785 4.631-11.57 9.26-17.353 13.885-.26.209-.573.673-.915.222-.342-.452.179-.638.441-.848 6.165-4.947 12.334-9.889 18.505-14.827 1.005-.805 1.07-1.143.416-2.422l-.39.365c-1.069.995-2.15 1.976-3.203 2.987a3.181 3.181 0 0 1-5.378-2.005c-.2.15-.372.259-.535.387l-9.15 7.091a2.227 2.227 0 0 1-.535.387.669.669 0 0 1-.45-.022v12.842h9.384a.548.548 0 0 1 .018-.488Z" fill="#FFCEBF"/><path d="M37.855 3.634a69.83 69.83 0 0 0-.725 2.517 2.532 2.532 0 0 0 1.35 3.135 10.672 10.672 0 0 0 5.727 1.2V3.777a1.095 1.095 0 0 1 .023-.441.998.998 0 0 1 .158-.224H37.85c.1.117.066.323.005.522Z" fill="#FF6196"/><path d="M24.723 18.048a3.633 3.633 0 0 1-.75 2.064 34.007 34.007 0 0 1-5.589 5.688 2.163 2.163 0 0 1-2.526.3 2.09 2.09 0 0 1-1.264-2.052 2.436 2.436 0 0 1 .625-1.42 53.779 53.779 0 0 1 7.528-5.99 1.065 1.065 0 0 1 1.244-.051 1.562 1.562 0 0 1 .732 1.461Zm-1.797 9.092a2.156 2.156 0 0 1 .672-1.8 57.504 57.504 0 0 1 7.305-5.72c.078-.05.15-.099.236-.15a1.256 1.256 0 0 1 1.956.728 1.29 1.29 0 0 1-.056.793 6.584 6.584 0 0 1-1.752 2.862 178.18 178.18 0 0 1-5.1 4.83 1.686 1.686 0 0 1-2.046.288 2.269 2.269 0 0 1-1.215-1.831Zm10.824.991c-.42.45-.852.879-1.255 1.34a2.77 2.77 0 0 0-.3.57c.221.066.481.24.661.178.916-.308 1.81-.677 2.817-1.065-.219.504-.384.969-.617 1.395a18.281 18.281 0 0 1-3.556 4.308 26.913 26.913 0 0 1-1.657 1.471 2.226 2.226 0 0 1-3.623-1.38 1.649 1.649 0 0 1 .357-1.219 33.28 33.28 0 0 1 6.934-5.735.288.288 0 0 1 .098-.019l.141.156Z" fill="#FF87AF"/><path d="m37.191 22.157 2.566-11.4 1.8.421-.928 2.821c-.867 2.626-1.744 5.25-2.59 7.879-.166.485-.382.575-.848.279Zm-2.898 6.704c.272-1.036.541-1.995.77-2.963.222-.94.644-1.82 1.238-2.582.365-.479.774-.288 1.193-.184.387.094.484.377.501.75a4.268 4.268 0 0 1-.882 2.86 7.2 7.2 0 0 1-2.82 2.12Z" fill="#FF6196"/><path d="M44.99 4.341c.022-.334.013-.67-.026-1.002a.436.436 0 0 0-.174-.226.571.571 0 0 0-.228-.113c-.048-.009-.115.04-.18.111a.998.998 0 0 0-.157.224 1.095 1.095 0 0 0-.025.44v6.708a10.683 10.683 0 0 1-5.727-1.2 2.532 2.532 0 0 1-1.35-3.134 69.83 69.83 0 0 1 .727-2.517c.06-.2.094-.405 0-.522a.3.3 0 0 0-.203-.096.45.45 0 0 0-.273.096.651.651 0 0 0-.257.285c-.3.9-.563 1.809-.793 2.727-.087.361-.11.735-.069 1.105a3.508 3.508 0 0 0 2.313 3c.284.118.45.236.37.609-.109.474-.216.948-.324 1.423-.734 3.223-1.465 6.446-2.192 9.671a.724.724 0 0 1-.182.386c-.48.38-.882.849-1.187 1.38a7.2 7.2 0 0 0-.794 2.25 1.471 1.471 0 0 1-.837 1.177c-.626.316-1.2.726-1.895 1.152.046-.835.037-1.672-.027-2.506a1.592 1.592 0 0 1 .426-1.44 7.124 7.124 0 0 0 1.887-3.291 1.94 1.94 0 0 0-1.812-2.55 2.55 2.55 0 0 0-1.393.396 103.1 103.1 0 0 0-4.218 3.038c-.821.619-1.593 1.302-2.389 1.95a.625.625 0 0 1-.088-.121 1.264 1.264 0 0 0-.088-.321c-.665-1.026-.204-1.771.517-2.538a4.19 4.19 0 0 0 1.158-2.927 2.35 2.35 0 0 0-.49-1.538 2.19 2.19 0 0 0-.658-.545 2.006 2.006 0 0 0-2.275.243l-.419.3c-.955.684-1.923 1.35-2.842 2.082a96.44 96.44 0 0 0-3.939 3.321c-.6.53-1.038 1.253-1.66 1.745-3.247 2.563-6.527 5.08-9.796 7.613a1.535 1.535 0 0 0-.307.242.246.246 0 0 0-.024.043c-.069.161-.127.427-.046.524.02.021.043.038.07.05a.67.67 0 0 0 .45.022c.196-.102.376-.232.534-.387l9.15-7.092c.164-.128.336-.243.536-.387a3.181 3.181 0 0 0 5.377 2.005c1.05-1.01 2.134-1.991 3.204-2.986l.39-.366c.654 1.28.588 1.617-.417 2.422a26096.3 26096.3 0 0 0-18.515 14.83c-.262.21-.781.4-.44.847.34.447.654-.014.915-.222 5.786-4.621 11.568-9.248 17.346-13.881.15-.12.307-.227.525-.386v.487a2.834 2.834 0 0 0 1.62 2.71 2.643 2.643 0 0 0 3.072-.494c1.189-1.05 2.366-2.12 3.55-3.18.075-.067.162-.118.3-.223a8.046 8.046 0 0 1-.098 3.104.785.785 0 0 1-.273.335c-.977.846-1.959 1.687-2.944 2.525L12.948 43.992c-.17.113-.319.253-.443.414a.548.548 0 0 0-.018.482.563.563 0 0 0 .48.094.44.44 0 0 0 .175-.097c.075-.06.15-.137.217-.198l10.444-8.85c.503-.427 1.01-.847 1.54-1.29.026.07.048.144.064.219a2.96 2.96 0 0 0 1.935 2.625 2.896 2.896 0 0 0 3.222-.629c.696-.635 1.383-1.28 2.073-1.922.45-.412.885-.826 1.359-1.272.088.308.16.62.215.937a4.8 4.8 0 0 1-1.521 3.973c-1.739 1.872-3.516 3.703-5.279 5.55-.116.12-.274.219-.338.361-.063.143-.103.422-.028.482l.021.014a.86.86 0 0 0 .507.076.204.204 0 0 0 .122-.076c.041-.044.082-.098.122-.139 1.428-1.476 2.864-2.944 4.282-4.43.572-.58 1.11-1.193 1.61-1.835a5.116 5.116 0 0 0 .915-5.424c-.04-.2 0-.408.111-.579.098-.168.206-.331.317-.494.355-.46.651-.965.88-1.5a11.32 11.32 0 0 1 2.009-3.6 4.186 4.186 0 0 0 .75-3.703 1.481 1.481 0 0 1 0-.733c.759-2.351 1.54-4.694 2.314-7.039l1.035-3.14.32-.971c.681 0 1.323-.014 1.962 0 .531.015.693-.234.687-.75-.032-2.07-.02-4.138-.02-6.207ZM18.383 25.8a2.163 2.163 0 0 1-2.526.3 2.088 2.088 0 0 1-1.264-2.052 2.436 2.436 0 0 1 .625-1.42 53.779 53.779 0 0 1 7.528-5.99 1.28 1.28 0 0 1 .49-.21.983.983 0 0 1 .357 0c.14.027.276.081.397.159a1.561 1.561 0 0 1 .732 1.462 3.633 3.633 0 0 1-.75 2.064 34.01 34.01 0 0 1-5.589 5.687Zm7.8 2.893a1.686 1.686 0 0 1-2.046.288 2.267 2.267 0 0 1-1.215-1.836 2.156 2.156 0 0 1 .672-1.8 57.513 57.513 0 0 1 7.305-5.719c.078-.05.15-.099.236-.15a1.256 1.256 0 0 1 1.956.728 1.29 1.29 0 0 1-.056.793 6.584 6.584 0 0 1-1.752 2.862c-1.654 1.653-3.375 3.244-5.097 4.828l-.003.006Zm8.866 1.862a18.28 18.28 0 0 1-3.55 4.302 26.913 26.913 0 0 1-1.657 1.471 2.226 2.226 0 0 1-3.623-1.38 1.65 1.65 0 0 1 .357-1.219 33.28 33.28 0 0 1 6.934-5.735.288.288 0 0 1 .098-.019l.15.15c-.42.45-.852.879-1.255 1.34a2.77 2.77 0 0 0-.3.57c.221.066.481.24.661.178.724-.243 1.437-.525 2.2-.825l.617-.24c-.231.51-.396.975-.629 1.401l-.002.006Zm2.06-3.802c-.56.712-1.26 1.3-2.06 1.727-.246.139-.5.267-.76.387.267-1.021.534-1.968.76-2.925l.01-.038c.222-.94.644-1.82 1.238-2.582.365-.479.774-.288 1.193-.184.387.094.484.377.501.75a4.267 4.267 0 0 1-.879 2.858l-.003.007Zm3.51-12.75c-.867 2.625-1.744 5.25-2.59 7.878-.16.493-.376.583-.842.286l2.224-9.89.343-1.518 1.8.422-.362 1.097-.573 1.724Z" fill="#000"/></svg>