<svg width="48" height="48" fill="none" xmlns="http://www.w3.org/2000/svg"><path d="M43.032 3H4.968A1.968 1.968 0 0 0 3 4.968v38.064C3 44.119 3.881 45 4.968 45h38.064A1.968 1.968 0 0 0 45 43.032V4.968A1.968 1.968 0 0 0 43.032 3Z" fill="#3178C6"/><path fill-rule="evenodd" clip-rule="evenodd" d="M27.367 35.639v4.601a9.738 9.738 0 0 0 2.646.863c1.062.196 2.14.292 3.22.288a14.953 14.953 0 0 0 3.132-.316 7.664 7.664 0 0 0 2.602-1.05 5.313 5.313 0 0 0 1.772-1.9c.76-1.593.86-3.423.279-5.09a5.116 5.116 0 0 0-1.076-1.676 7.854 7.854 0 0 0-1.684-1.316 18.053 18.053 0 0 0-2.216-1.1c-.6-.25-1.14-.492-1.62-.727a8.25 8.25 0 0 1-1.22-.718 3.133 3.133 0 0 1-.773-.777 1.637 1.637 0 0 1-.272-.927c-.004-.303.08-.6.243-.857.177-.267.412-.49.689-.654a3.662 3.662 0 0 1 1.089-.424 6.32 6.32 0 0 1 1.434-.15 9.458 9.458 0 0 1 3.75.803c.394.175.77.387 1.126.633V20.85c-.74-.28-1.506-.48-2.288-.6a18.641 18.641 0 0 0-2.85-.194 13.15 13.15 0 0 0-3.096.353 7.858 7.858 0 0 0-2.573 1.1 5.484 5.484 0 0 0-1.757 1.906 5.597 5.597 0 0 0-.646 2.768 5.382 5.382 0 0 0 1.183 3.51 9 9 0 0 0 3.593 2.458c.63.26 1.217.514 1.762.763.492.22.964.479 1.413.776.362.235.68.532.939.878a1.8 1.8 0 0 1 .345 1.078 1.65 1.65 0 0 1-.216.828c-.16.271-.384.498-.652.662a3.57 3.57 0 0 1-1.09.438 6.561 6.561 0 0 1-1.526.157 8.659 8.659 0 0 1-2.954-.525 8.81 8.81 0 0 1-2.707-1.568Zm-7.73-11.458h6v-3.79H8.907v3.79h5.973v16.881h4.757v-16.88Z" fill="#fff"/></svg>