<svg width="1280" height="195" fill="none" xmlns="http://www.w3.org/2000/svg"><path fill-rule="evenodd" clip-rule="evenodd" d="m1280 80.826-18 11.298c-18 11.299-53 34.491-89 53.52-35 19.029-71 33.895-106 14.866-36-19.029-71-71.953-107-79.684-36-7.73-71 30.327-107 30.327-35 0-71-38.058-106-57.087-36-19.029-71-19.029-107-22.597-36-4.162-71-11.298-107-11.298-35 0-71 7.136-106 3.568-36-3.568-71-19.03-107-22.597-36-4.163-71 3.568-107 14.866-35 11.299-71 26.76-106 30.328-36 4.163-71-3.568-89-7.136L0 35.037V195h1280V80.826Z" fill="#01C0FF"/></svg>